<svg xmlns="http://www.w3.org/2000/svg" viewBox="77.2 80.6 34.8 34.8">
  <path fill="#5064ec" d="M94.65 112.56c-.25 0-.5-.06-.72-.19l-11.2-6.5a1.45 1.45 0 0 1-.73-1.25V91.64c0-.52.28-1 .72-1.25l11.2-6.5a1.45 1.45 0 0 1 1.44 2.5L84.9 92.5v11.3l9.76 5.66 10.49-6.07c.69-.4 1.57-.16 1.97.53.4.7.16 1.58-.53 1.98l-11.2 6.5c-.23.12-.48.18-.73.18"/>
  <path fill="#5064ec" d="M94.66 106.13a1.45 1.45 0 0 1-.72-2.7l11.2-6.5c.69-.4 1.57-.16 1.97.53.4.7.16 1.58-.53 1.98l-11.2 6.5c-.23.13-.48.19-.72.19"/>
  <path fill="#26d6f1" d="M99.6 97.35c-.5 0-.98-.26-1.25-.72-.4-.7-.16-1.58.53-1.98l6.26-3.63c.69-.4 1.57-.16 1.97.53.4.7.16 1.58-.53 1.98l-6.25 3.63c-.23.13-.48.2-.72.2"/>
  <path fill="#5064ec" d="M94.66 94.3c-.5 0-.99-.25-1.26-.72-.4-.69-.16-1.57.53-1.97l11.2-6.5a1.45 1.45 0 0 1 1.44 2.51l-11.2 6.5c-.22.13-.47.19-.71.19"/>
</svg>
