<svg width="1853" height="416" viewBox="0 0 1853 416" fill="none" xmlns="http://www.w3.org/2000/svg">
<g clip-path="url(#clip0_32_517)">
<path d="M350.2 252.2L343 218.2C377.4 209.4 403.8 205 422.2 205C448.867 205 467.667 211.133 478.6 223.4C489.533 235.667 495 255.933 495 284.2V399H450.2V375.8C429.933 393.667 409.133 402.6 387.8 402.6C366.467 402.6 350.467 398.067 339.8 389C329.4 379.933 324.2 365 324.2 344.2C324.2 304.2 350.733 284.2 403.8 284.2H450.2C450.2 268.2 447.667 257.4 442.6 251.8C437.8 245.933 428.333 243 414.2 243C397.933 243 376.6 246.067 350.2 252.2ZM450.2 312.6H409.4C393.933 312.6 382.733 314.467 375.8 318.2C369.133 321.667 365.8 328.6 365.8 339C365.8 359.267 377.8 369.4 401.8 369.4C418.867 369.4 435 361.133 450.2 344.6V312.6ZM651.306 360.2L656.106 390.6C639.84 397.533 623.84 401 608.106 401C587.04 401 571.84 395.8 562.506 385.4C553.44 375 548.906 358.067 548.906 334.6V246.6H520.906V208.6H548.906V163H594.506V208.6H647.306V246.6H594.506V332.6C594.506 343.8 596.64 351.533 600.906 355.8C605.44 359.8 613.173 361.8 624.106 361.8C633.706 361.8 642.773 361.267 651.306 360.2ZM699.809 252.2L692.609 218.2C727.009 209.4 753.409 205 771.809 205C798.476 205 817.276 211.133 828.209 223.4C839.143 235.667 844.609 255.933 844.609 284.2V399H799.809V375.8C779.543 393.667 758.743 402.6 737.409 402.6C716.076 402.6 700.076 398.067 689.409 389C679.009 379.933 673.809 365 673.809 344.2C673.809 304.2 700.343 284.2 753.409 284.2H799.809C799.809 268.2 797.276 257.4 792.209 251.8C787.409 245.933 777.943 243 763.809 243C747.543 243 726.209 246.067 699.809 252.2ZM799.809 312.6H759.009C743.543 312.6 732.343 314.467 725.409 318.2C718.743 321.667 715.409 328.6 715.409 339C715.409 359.267 727.409 369.4 751.409 369.4C768.476 369.4 784.609 361.133 799.809 344.6V312.6ZM1028.1 221L1016.5 253.8C987.964 244.467 966.764 239.8 952.897 239.8C935.83 239.8 927.297 246.2 927.297 259C927.297 261.133 927.564 263.133 928.097 265C928.63 266.6 929.697 268.067 931.297 269.4C932.897 270.733 934.364 271.933 935.697 273C937.297 273.8 939.697 274.867 942.897 276.2C946.097 277.267 948.63 278.2 950.497 279C952.63 279.533 955.964 280.467 960.497 281.8C965.03 283.133 968.63 284.2 971.297 285C994.764 292.2 1010.9 299.667 1019.7 307.4C1028.5 315.133 1032.9 327.8 1032.9 345.4C1032.9 363.267 1026.5 377.267 1013.7 387.4C1001.16 397.533 983.564 402.6 960.897 402.6C931.297 402.6 903.297 393.933 876.897 376.6L892.097 345.4C916.097 359.533 939.03 366.6 960.897 366.6C979.83 366.6 989.297 360.333 989.297 347.8C989.297 345.133 989.03 342.733 988.497 340.6C987.964 338.467 986.897 336.6 985.297 335C983.697 333.4 982.097 332.067 980.497 331C979.164 329.933 976.764 328.733 973.297 327.4C969.83 326.067 966.897 325.133 964.497 324.6C962.364 323.8 958.497 322.6 952.897 321C947.564 319.4 943.297 318.067 940.097 317C920.63 310.867 906.497 303.8 897.697 295.8C889.164 287.8 884.897 276.733 884.897 262.6C884.897 244.2 890.63 229.933 902.097 219.8C913.83 209.667 930.497 204.6 952.097 204.6C974.497 204.6 999.83 210.067 1028.1 221ZM1080.28 252.2L1073.08 218.2C1107.48 209.4 1133.88 205 1152.28 205C1178.94 205 1197.74 211.133 1208.68 223.4C1219.61 235.667 1225.08 255.933 1225.08 284.2V399H1180.28V375.8C1160.01 393.667 1139.21 402.6 1117.88 402.6C1096.54 402.6 1080.54 398.067 1069.88 389C1059.48 379.933 1054.28 365 1054.28 344.2C1054.28 304.2 1080.81 284.2 1133.88 284.2H1180.28C1180.28 268.2 1177.74 257.4 1172.68 251.8C1167.88 245.933 1158.41 243 1144.28 243C1128.01 243 1106.68 246.067 1080.28 252.2ZM1180.28 312.6H1139.48C1124.01 312.6 1112.81 314.467 1105.88 318.2C1099.21 321.667 1095.88 328.6 1095.88 339C1095.88 359.267 1107.88 369.4 1131.88 369.4C1148.94 369.4 1165.08 361.133 1180.28 344.6V312.6ZM1316.95 209V235.4C1339.61 215.4 1362.15 205.4 1384.55 205.4C1405.61 205.4 1421.21 211.4 1431.35 223.4C1441.48 235.133 1446.55 253.8 1446.55 279.4V399H1401.35V291.4C1401.35 275.133 1399.35 263.8 1395.35 257.4C1391.35 251 1383.35 247.8 1371.35 247.8C1352.15 247.8 1334.01 257.667 1316.95 277.4V399H1271.75V209H1316.95ZM1638.88 346.6L1653.68 374.6C1640.34 385 1627.41 392.333 1614.88 396.6C1602.61 400.6 1587.81 402.6 1570.48 402.6C1544.08 402.6 1522.61 393.8 1506.08 376.2C1489.54 358.6 1481.28 334.867 1481.28 305C1481.28 274.333 1489.81 250.067 1506.88 232.2C1523.94 214.067 1546.48 205 1574.48 205C1600.88 205 1625.01 211.533 1646.88 224.6L1632.48 254.2C1615.14 246.2 1596.88 242.2 1577.68 242.2C1561.94 242.2 1549.28 247.933 1539.68 259.4C1530.34 270.6 1525.68 285.8 1525.68 305C1525.68 323.4 1530.21 338.067 1539.28 349C1548.61 359.667 1561.14 365 1576.88 365C1598.48 365 1619.14 358.867 1638.88 346.6ZM1835.88 345.8L1850.68 373C1825.34 392.733 1796.94 402.6 1765.48 402.6C1737.21 402.6 1714.68 394.467 1697.88 378.2C1681.34 361.933 1673.08 337.667 1673.08 305.4C1673.08 272.067 1681.48 247.133 1698.28 230.6C1715.08 213.8 1737.88 205.4 1766.68 205.4C1793.34 205.133 1814.28 213 1829.48 229C1844.68 244.733 1852.41 267.4 1852.68 297C1852.68 304.733 1852.28 311.267 1851.48 316.6L1716.28 317C1719.74 350.333 1736.81 367 1767.48 367C1790.68 367 1813.48 359.933 1835.88 345.8ZM1716.67 285.4H1813.08C1810.68 254.733 1795.21 239.4 1766.68 239.4C1737.88 239.4 1721.21 254.733 1716.67 285.4Z" fill="black"/>
<path d="M44.8714 23.8734C43.0814 12.572 50.7979 1.84973 62.2215 1.19697C85.1149 -0.111145 108.116 2.38787 130.278 8.63819C159.102 16.7674 185.821 31.049 208.594 50.4991C231.367 69.949 249.653 94.105 262.191 121.303C274.729 148.5 281.222 178.093 281.222 208.041C281.222 237.99 274.729 267.582 262.191 294.78C249.653 321.977 231.367 346.133 208.594 365.583C185.821 385.033 159.102 399.315 130.278 407.444C108.116 413.694 85.1149 416.193 62.2215 414.885C50.7979 414.232 43.0814 403.51 44.8714 392.209C46.6614 380.907 57.2883 373.334 68.7248 373.701C85.6681 374.245 102.636 372.187 119.031 367.563C142.09 361.06 163.465 349.635 181.684 334.075C199.902 318.515 214.53 299.19 224.561 277.432C234.592 255.674 239.786 232 239.786 208.041C239.786 184.082 234.592 160.408 224.561 138.65C214.53 116.892 199.902 97.5674 181.684 82.0074C163.465 66.4474 142.09 55.0221 119.031 48.5187C102.636 43.8951 85.6681 41.8375 68.7248 42.3811C57.2883 42.7481 46.6614 35.1749 44.8714 23.8734Z" fill="black"/>
<circle cx="74.4527" cy="208.446" r="74.7348" transform="rotate(90 74.4527 208.446)" fill="black"/>
</g>
<defs>
<clipPath id="clip0_32_517">
<rect width="1853" height="416" fill="white"/>
</clipPath>
</defs>
</svg>
