<svg width="1853" height="414" viewBox="0 0 1853 414" fill="none" xmlns="http://www.w3.org/2000/svg">
<g clip-path="url(#clip0_32_523)">
<path d="M350.2 251.2L343 217.2C377.4 208.4 403.8 204 422.2 204C448.867 204 467.667 210.133 478.6 222.4C489.533 234.667 495 254.933 495 283.2V398H450.2V374.8C429.933 392.667 409.133 401.6 387.8 401.6C366.467 401.6 350.467 397.067 339.8 388C329.4 378.933 324.2 364 324.2 343.2C324.2 303.2 350.733 283.2 403.8 283.2H450.2C450.2 267.2 447.667 256.4 442.6 250.8C437.8 244.933 428.333 242 414.2 242C397.933 242 376.6 245.067 350.2 251.2ZM450.2 311.6H409.4C393.933 311.6 382.733 313.467 375.8 317.2C369.133 320.667 365.8 327.6 365.8 338C365.8 358.267 377.8 368.4 401.8 368.4C418.867 368.4 435 360.133 450.2 343.6V311.6ZM651.306 359.2L656.106 389.6C639.84 396.533 623.84 400 608.106 400C587.04 400 571.84 394.8 562.506 384.4C553.44 374 548.906 357.067 548.906 333.6V245.6H520.906V207.6H548.906V162H594.506V207.6H647.306V245.6H594.506V331.6C594.506 342.8 596.64 350.533 600.906 354.8C605.44 358.8 613.173 360.8 624.106 360.8C633.706 360.8 642.773 360.267 651.306 359.2ZM699.809 251.2L692.609 217.2C727.009 208.4 753.409 204 771.809 204C798.476 204 817.276 210.133 828.209 222.4C839.143 234.667 844.609 254.933 844.609 283.2V398H799.809V374.8C779.543 392.667 758.743 401.6 737.409 401.6C716.076 401.6 700.076 397.067 689.409 388C679.009 378.933 673.809 364 673.809 343.2C673.809 303.2 700.343 283.2 753.409 283.2H799.809C799.809 267.2 797.276 256.4 792.209 250.8C787.409 244.933 777.943 242 763.809 242C747.543 242 726.209 245.067 699.809 251.2ZM799.809 311.6H759.009C743.543 311.6 732.343 313.467 725.409 317.2C718.743 320.667 715.409 327.6 715.409 338C715.409 358.267 727.409 368.4 751.409 368.4C768.476 368.4 784.609 360.133 799.809 343.6V311.6ZM1028.1 220L1016.5 252.8C987.964 243.467 966.764 238.8 952.897 238.8C935.83 238.8 927.297 245.2 927.297 258C927.297 260.133 927.564 262.133 928.097 264C928.63 265.6 929.697 267.067 931.297 268.4C932.897 269.733 934.364 270.933 935.697 272C937.297 272.8 939.697 273.867 942.897 275.2C946.097 276.267 948.63 277.2 950.497 278C952.63 278.533 955.964 279.467 960.497 280.8C965.03 282.133 968.63 283.2 971.297 284C994.764 291.2 1010.9 298.667 1019.7 306.4C1028.5 314.133 1032.9 326.8 1032.9 344.4C1032.9 362.267 1026.5 376.267 1013.7 386.4C1001.16 396.533 983.564 401.6 960.897 401.6C931.297 401.6 903.297 392.933 876.897 375.6L892.097 344.4C916.097 358.533 939.03 365.6 960.897 365.6C979.83 365.6 989.297 359.333 989.297 346.8C989.297 344.133 989.03 341.733 988.497 339.6C987.964 337.467 986.897 335.6 985.297 334C983.697 332.4 982.097 331.067 980.497 330C979.164 328.933 976.764 327.733 973.297 326.4C969.83 325.067 966.897 324.133 964.497 323.6C962.364 322.8 958.497 321.6 952.897 320C947.564 318.4 943.297 317.067 940.097 316C920.63 309.867 906.497 302.8 897.697 294.8C889.164 286.8 884.897 275.733 884.897 261.6C884.897 243.2 890.63 228.933 902.097 218.8C913.83 208.667 930.497 203.6 952.097 203.6C974.497 203.6 999.83 209.067 1028.1 220ZM1080.28 251.2L1073.08 217.2C1107.48 208.4 1133.88 204 1152.28 204C1178.94 204 1197.74 210.133 1208.68 222.4C1219.61 234.667 1225.08 254.933 1225.08 283.2V398H1180.28V374.8C1160.01 392.667 1139.21 401.6 1117.88 401.6C1096.54 401.6 1080.54 397.067 1069.88 388C1059.48 378.933 1054.28 364 1054.28 343.2C1054.28 303.2 1080.81 283.2 1133.88 283.2H1180.28C1180.28 267.2 1177.74 256.4 1172.68 250.8C1167.88 244.933 1158.41 242 1144.28 242C1128.01 242 1106.68 245.067 1080.28 251.2ZM1180.28 311.6H1139.48C1124.01 311.6 1112.81 313.467 1105.88 317.2C1099.21 320.667 1095.88 327.6 1095.88 338C1095.88 358.267 1107.88 368.4 1131.88 368.4C1148.94 368.4 1165.08 360.133 1180.28 343.6V311.6ZM1316.95 208V234.4C1339.61 214.4 1362.15 204.4 1384.55 204.4C1405.61 204.4 1421.21 210.4 1431.35 222.4C1441.48 234.133 1446.55 252.8 1446.55 278.4V398H1401.35V290.4C1401.35 274.133 1399.35 262.8 1395.35 256.4C1391.35 250 1383.35 246.8 1371.35 246.8C1352.15 246.8 1334.01 256.667 1316.95 276.4V398H1271.75V208H1316.95ZM1638.88 345.6L1653.68 373.6C1640.34 384 1627.41 391.333 1614.88 395.6C1602.61 399.6 1587.81 401.6 1570.48 401.6C1544.08 401.6 1522.61 392.8 1506.08 375.2C1489.54 357.6 1481.28 333.867 1481.28 304C1481.28 273.333 1489.81 249.067 1506.88 231.2C1523.94 213.067 1546.48 204 1574.48 204C1600.88 204 1625.01 210.533 1646.88 223.6L1632.48 253.2C1615.14 245.2 1596.88 241.2 1577.68 241.2C1561.94 241.2 1549.28 246.933 1539.68 258.4C1530.34 269.6 1525.68 284.8 1525.68 304C1525.68 322.4 1530.21 337.067 1539.28 348C1548.61 358.667 1561.14 364 1576.88 364C1598.48 364 1619.14 357.867 1638.88 345.6ZM1835.88 344.8L1850.68 372C1825.34 391.733 1796.94 401.6 1765.48 401.6C1737.21 401.6 1714.68 393.467 1697.88 377.2C1681.34 360.933 1673.08 336.667 1673.08 304.4C1673.08 271.067 1681.48 246.133 1698.28 229.6C1715.08 212.8 1737.88 204.4 1766.68 204.4C1793.34 204.133 1814.28 212 1829.48 228C1844.68 243.733 1852.41 266.4 1852.68 296C1852.68 303.733 1852.28 310.267 1851.48 315.6L1716.28 316C1719.74 349.333 1736.81 366 1767.48 366C1790.68 366 1813.48 358.933 1835.88 344.8ZM1716.67 284.4H1813.08C1810.68 253.733 1795.21 238.4 1766.68 238.4C1737.88 238.4 1721.21 253.733 1716.67 284.4Z" fill="white"/>
<path d="M44.8714 22.8734C43.0814 11.572 50.7979 0.849725 62.2215 0.196966C85.1149 -1.11115 108.116 1.38787 130.278 7.63819C159.102 15.7674 185.821 30.049 208.594 49.4991C231.367 68.949 249.653 93.105 262.191 120.303C274.729 147.5 281.222 177.093 281.222 207.041C281.222 236.99 274.729 266.582 262.191 293.78C249.653 320.977 231.367 345.133 208.594 364.583C185.821 384.033 159.102 398.315 130.278 406.444C108.116 412.694 85.1149 415.193 62.2215 413.885C50.7979 413.232 43.0814 402.51 44.8714 391.209C46.6614 379.907 57.2883 372.334 68.7248 372.701C85.6681 373.245 102.636 371.187 119.031 366.563C142.09 360.06 163.465 348.635 181.684 333.075C199.902 317.515 214.53 298.19 224.561 276.432C234.592 254.674 239.786 231 239.786 207.041C239.786 183.082 234.592 159.408 224.561 137.65C214.53 115.892 199.902 96.5674 181.684 81.0074C163.465 65.4474 142.09 54.0221 119.031 47.5187C102.636 42.8951 85.6681 40.8375 68.7248 41.3811C57.2883 41.7481 46.6614 34.1749 44.8714 22.8734Z" fill="white"/>
<circle cx="74.4527" cy="207.446" r="74.7348" transform="rotate(90 74.4527 207.446)" fill="white"/>
</g>
<defs>
<clipPath id="clip0_32_523">
<rect width="1853" height="414" fill="white"/>
</clipPath>
</defs>
</svg>
